# xmcd CD database file
#
# Track frame offsets:
#	150
#	13200
#	27895
#	39445
#	56290
#	71690
#	87897
#	99325
#	113172
#	125960
#
# Disc length: 1877 seconds
#
# Revision: 0
# Processed by: cddbd v1.5.2PL0 Copyright (c) Steve Scherf et al.
# Submitted via: CDex 1.70beta2
#
DISCID=7f07530a
DTITLE=Hicks, Ivan and Vivian - Cdn.- Riverview, NB - For You
DYEAR=1900
DGENRE=Country
TTITLE0=There's A Big Wheel
TTITLE1=Under Your Spell Again
TTITLE2=Bye, Bye Love
TTITLE3=Once More
TTITLE4=God Made Love
TTITLE5=If I Need You
TTITLE6=No One Has to Tell Me
TTITLE7=My Baby's Gone
TTITLE8=Walk Right Back
TTITLE9=The Leaves Musn't Fall
EXTD=
EXTT0=
EXTT1=
EXTT2=
EXTT3=
EXTT4=
EXTT5=
EXTT6=
EXTT7=
EXTT8=
EXTT9=
PLAYORDER=
